<svg xmlns="http://www.w3.org/2000/svg" xmlns:xlink="http://www.w3.org/1999/xlink" version="1.1" id="Layer_1" x="0px" y="0px" viewBox="0 0 100 100" enable-background="new 0 0 100 100" xml:space="preserve" height="100px" width="100px">
<path d="M61.26,0.3H44.52c-0.55,0-1,0.45-1,1v49.26c0,0.48,0.34,0.9,0.81,0.99c0.04,0.01,3.89,0.82,4.98,6.09h-2.22  c-0.55,0-1,0.44-1,1v4.14c0,0.55,0.45,1,1,1h0.81c1.06,2.17,0.6,4.5-0.74,10.16c-1.44,6.14-1.66,19.22,0.8,23.12  c1.08,1.71,2.66,2.64,4.45,2.64h0.92c1.8,0,3.42-0.92,4.51-2.64c2.46-3.9,2.24-16.98,0.8-23.12c-1.34-5.66-1.8-7.99-0.74-10.16h0.96  c0.55,0,1-0.45,1-1v-4.14c0-0.56-0.45-1-1-1h-2.39c1.07-5.22,4.82-6.06,4.98-6.09c0.47-0.09,0.81-0.51,0.81-0.99V1.3  C62.26,0.75,61.81,0.3,61.26,0.3z M56.15,95.99c-0.72,1.13-1.69,1.74-2.81,1.71h-0.92c-1.1,0-2.06-0.59-2.77-1.71  c-1.98-3.13-2.01-15.35-0.54-21.59c1.25-5.32,1.83-8.1,0.95-10.62h5.68c-0.88,2.52-0.3,5.3,0.95,10.62  C58.16,80.64,58.12,92.86,56.15,95.99z M57.86,59.64v2.14h-9.77v-2.14H57.86z M60.26,49.83c-1.56,0.59-4.89,2.45-5.82,7.81h-3.09  c-0.94-5.36-4.27-7.22-5.83-7.81V7.28h14.74V49.83z M60.26,5.28H45.52V2.3h14.74V5.28z"/>
</svg>